<svg xmlns="http://www.w3.org/2000/svg" width="128" height="128">
	<path fill="#FFFAF0" d="M0 0h128v128H0z"/>
	<path fill="#FFB100" d="M64 24a6 6 0 0 1 3 11.2v18.2a12 12 0 0 1 4.6 2.3l14.6-11.6a6 6 0 1 1 3.7 4.7L75.2 60.6c.5 1.3.8 2.7.8 4.1v.3l18.8 4.4a6 6 0 1 1-1.3 5.8l-19-4.3a12 12 0 0 1-2.6 3.2l8.7 18a6 6 0 1 1-5.4 2.6l-8.7-18a12 12 0 0 1-4.8 0l-8.6 18a6 6 0 1 1-5.4-2.6l8.6-17.9c-1.1-1-2-2-2.7-3.3l-18.9 4.3a6 6 0 1 1-1.3-5.8L52 65V65c0-1.9.4-3.6 1.2-5.2L38.8 48.3a6 6 0 1 1 3.8-4.7L57 55.2a12 12 0 0 1 4-1.8V35.2A6 6 0 0 1 64 24Z"/>
</svg>
